<svg width="14" height="16" viewBox="0 0 14 16" fill="none" xmlns="http://www.w3.org/2000/svg">
<g clip-path="url(#clip0_51_1059)">
<path d="M3.98961 0C4.5413 0 4.98701 0.446875 4.98701 1V2H8.97662V1C8.97662 0.446875 9.42234 0 9.97403 0C10.5257 0 10.9714 0.446875 10.9714 1V2H12.4675C13.2935 2 13.9636 2.67188 13.9636 3.5V5H0V3.5C0 2.67188 0.67013 2 1.4961 2H2.99221V1C2.99221 0.446875 3.43792 0 3.98961 0ZM0 6H13.9636V14.5C13.9636 15.3281 13.2935 16 12.4675 16H1.4961C0.67013 16 0 15.3281 0 14.5V6ZM1.99481 8.5V9.5C1.99481 9.775 2.21922 10 2.49351 10H3.49091C3.76519 10 3.98961 9.775 3.98961 9.5V8.5C3.98961 8.225 3.76519 8 3.49091 8H2.49351C2.21922 8 1.99481 8.225 1.99481 8.5ZM5.98442 8.5V9.5C5.98442 9.775 6.20883 10 6.48312 10H7.48052C7.75481 10 7.97922 9.775 7.97922 9.5V8.5C7.97922 8.225 7.75481 8 7.48052 8H6.48312C6.20883 8 5.98442 8.225 5.98442 8.5ZM10.4727 8C10.1984 8 9.97403 8.225 9.97403 8.5V9.5C9.97403 9.775 10.1984 10 10.4727 10H11.4701C11.7444 10 11.9688 9.775 11.9688 9.5V8.5C11.9688 8.225 11.7444 8 11.4701 8H10.4727ZM1.99481 12.5V13.5C1.99481 13.775 2.21922 14 2.49351 14H3.49091C3.76519 14 3.98961 13.775 3.98961 13.5V12.5C3.98961 12.225 3.76519 12 3.49091 12H2.49351C2.21922 12 1.99481 12.225 1.99481 12.5ZM6.48312 12C6.20883 12 5.98442 12.225 5.98442 12.5V13.5C5.98442 13.775 6.20883 14 6.48312 14H7.48052C7.75481 14 7.97922 13.775 7.97922 13.5V12.5C7.97922 12.225 7.75481 12 7.48052 12H6.48312ZM9.97403 12.5V13.5C9.97403 13.775 10.1984 14 10.4727 14H11.4701C11.7444 14 11.9688 13.775 11.9688 13.5V12.5C11.9688 12.225 11.7444 12 11.4701 12H10.4727C10.1984 12 9.97403 12.225 9.97403 12.5Z" fill="#346D0A"/>
</g>
<defs>
<clipPath id="clip0_51_1059">
<rect width="13.9636" height="16" fill="white"/>
</clipPath>
</defs>
</svg>
