<svg width="12" height="16" viewBox="0 0 12 16" fill="none" xmlns="http://www.w3.org/2000/svg">
<g clip-path="url(#clip0_51_1057)">
<path d="M5.2221 15.6C3.63034 13.5938 2.28882e-05 8.73125 2.28882e-05 6C2.28882e-05 2.6875 2.66846 0 5.95747 0C9.24648 0 11.9149 2.6875 11.9149 6C11.9149 8.73125 8.2846 13.5938 6.69284 15.6C6.31119 16.0781 5.60375 16.0781 5.2221 15.6ZM5.95747 8C7.05277 8 7.94329 7.10313 7.94329 6C7.94329 4.89688 7.05277 4 5.95747 4C4.86217 4 3.97165 4.89688 3.97165 6C3.97165 7.10313 4.86217 8 5.95747 8Z" fill="#346D0A"/>
</g>
<defs>
<clipPath id="clip0_51_1057">
<rect width="11.9149" height="16" fill="white" transform="matrix(-1 0 0 1 11.9149 0)"/>
</clipPath>
</defs>
</svg>
