<svg width="34" height="34" viewBox="0 0 34 34" fill="none" xmlns="http://www.w3.org/2000/svg">
<path d="M23.375 6.375H27.625C28.8004 6.375 29.75 7.32461 29.75 8.5V25.5C29.75 26.6754 28.8004 27.625 27.625 27.625H23.375C22.1996 27.625 21.25 28.5746 21.25 29.75C21.25 30.9254 22.1996 31.875 23.375 31.875H27.625C31.1445 31.875 34 29.0195 34 25.5V8.5C34 4.98047 31.1445 2.125 27.625 2.125H23.375C22.1996 2.125 21.25 3.07461 21.25 4.25C21.25 5.42539 22.1996 6.375 23.375 6.375ZM22.877 18.1555C23.1957 17.8566 23.375 17.4383 23.375 17C23.375 16.5617 23.1957 16.1434 22.877 15.8445L13.3145 6.81328C12.8496 6.375 12.1723 6.25547 11.5879 6.50781C11.0035 6.76016 10.625 7.33789 10.625 7.96875V12.75H2.125C0.949609 12.75 0 13.6996 0 14.875V19.125C0 20.3004 0.949609 21.25 2.125 21.25H10.625V26.0312C10.625 26.6688 11.0035 27.2398 11.5879 27.4922C12.1723 27.7445 12.8496 27.625 13.3145 27.1867L22.877 18.1555Z" fill="white"/>
</svg>
