<svg width="31" height="24" viewBox="0 0 31 24" fill="none" xmlns="http://www.w3.org/2000/svg">
<path d="M1.87961 0.239321C1.37587 -0.145046 0.64448 -0.0559853 0.247299 0.431504C-0.149881 0.918993 -0.0578517 1.62679 0.445889 2.01116L29.1204 23.7607C29.6241 24.145 30.3555 24.056 30.7527 23.5685C31.1499 23.081 31.0579 22.3732 30.5541 21.9888L25.4586 18.1264C27.3767 16.2233 28.6748 14.0906 29.3287 12.5765C29.4885 12.2062 29.4885 11.7938 29.3287 11.4235C28.607 9.75005 27.0909 7.3126 24.8241 5.27827C22.5475 3.22519 19.4137 1.50023 15.5 1.50023C12.1966 1.50023 9.44542 2.73302 7.29967 4.35017L1.87961 0.239321ZM10.8065 7.00792C12.0416 5.91576 13.6933 5.25015 15.5 5.25015C19.3507 5.25015 22.4749 8.27352 22.4749 12C22.4749 13.1672 22.1697 14.264 21.6321 15.2202L19.7624 13.8046C20.0143 13.2515 20.1499 12.6422 20.1499 12C20.1499 9.51568 18.0671 7.5001 15.5 7.5001C15.3644 7.5001 15.2288 7.50479 15.0931 7.51885C15.3498 7.95478 15.5 8.46102 15.5 9.00007C15.5 9.47818 15.3838 9.92817 15.1803 10.3266L10.8065 7.00792ZM21.6127 20.9764L18.0671 18.2764C17.2728 18.5811 16.4058 18.7499 15.5 18.7499C11.6493 18.7499 8.52512 15.7265 8.52512 12C8.52512 11.6766 8.54934 11.3625 8.59293 11.0531L4.02536 7.57041C2.921 8.96257 2.13149 10.35 1.67134 11.4235C1.5115 11.7938 1.5115 12.2062 1.67134 12.5765C2.39304 14.25 3.90911 16.6874 6.17595 18.7217C8.45247 20.7748 11.5863 22.4998 15.5 22.4998C17.8153 22.4998 19.8545 21.8951 21.6127 20.9764Z" fill="#346D0A"/>
</svg>
