<svg width="29" height="22" viewBox="0 0 29 22" fill="none" xmlns="http://www.w3.org/2000/svg">
<path d="M14.278 0.410339C10.3786 0.410339 7.25617 2.1427 4.98314 4.20459C2.72459 6.24765 1.21406 8.69556 0.499814 10.3761C0.340557 10.748 0.340557 11.1623 0.499814 11.5342C1.21406 13.2148 2.72459 15.6627 4.98314 17.7057C7.25617 19.7676 10.3786 21.5 14.278 21.5C18.1773 21.5 21.2997 19.7676 23.5728 17.7057C25.8313 15.658 27.3419 13.2148 28.0609 11.5342C28.2202 11.1623 28.2202 10.748 28.0609 10.3761C27.3419 8.69556 25.8313 6.24765 23.5728 4.20459C21.2997 2.1427 18.1773 0.410339 14.278 0.410339ZM21.2274 10.9552C21.2274 14.6976 18.1146 17.734 14.278 17.734C10.4413 17.734 7.32856 14.6976 7.32856 10.9552C7.32856 7.21269 10.4413 4.17635 14.278 4.17635C18.1146 4.17635 21.2274 7.21269 21.2274 10.9552ZM14.278 7.94236C14.278 9.60411 12.8929 10.9552 11.1893 10.9552C10.6344 10.9552 10.1131 10.8139 9.66433 10.5597C9.65468 10.6915 9.64503 10.8186 9.64503 10.9552C9.64503 13.4501 11.7202 15.4744 14.278 15.4744C16.8357 15.4744 18.9109 13.4501 18.9109 10.9552C18.9109 8.46019 16.8357 6.43595 14.278 6.43595C14.1428 6.43595 14.0077 6.44066 13.8726 6.45478C14.1284 6.89258 14.278 7.40099 14.278 7.94236Z" fill="#346D0A"/>
</svg>
